<?xml version="1.0" encoding="iso-8859-1"?>
<!-- Generator: Adobe Illustrator 19.2.1, SVG Export Plug-In . SVG Version: 6.00 Build 0)  -->
<svg version="1.1" id="Layer_1" xmlns="http://www.w3.org/2000/svg" xmlns:xlink="http://www.w3.org/1999/xlink" x="0px" y="0px"
	 viewBox="0 0 80 80" style="enable-background:new 0 0 80 80;" xml:space="preserve">
<g>
	<polygon style="fill:#DBB065;" points="2.5,71.5 2.5,8.5 23.793,8.5 29.793,14.5 77.5,14.5 77.5,71.5 	"/>
	<g>
		<path style="fill:#967A44;" d="M23.586,9l5.707,5.707L29.586,15H30h47v56H3V9H23.586 M24,8H2v64h76V14H30L24,8L24,8z"/>
	</g>
</g>
<g>
	<polygon style="fill:#F5CE85;" points="2.5,71.5 2.5,18.5 24.151,18.5 30.151,14.5 77.5,14.5 77.5,71.5 	"/>
	<g>
		<path style="fill:#967A44;" d="M77,15v56H3V19h21h0.303l0.252-0.168L30.303,15H77 M78,14H30l-6,4H2v54h76V14L78,14z"/>
	</g>
</g>
</svg>